<svg width="24" height="24" viewBox="0 0 24 24" fill="none" xmlns="http://www.w3.org/2000/svg">
<path d="M12.4935 9.70734C13.0515 9.81908 13.5499 10.0955 13.9367 10.4822C13.9499 10.4955 13.9631 10.5087 13.9764 10.5227L18.0632 7.92232C17.9809 7.68044 17.936 7.42166 17.936 7.15185C17.936 6.49459 18.2029 5.8991 18.6337 5.46754C19.0645 5.03673 19.66 4.76986 20.318 4.76986C20.9753 4.76986 21.5715 5.03673 22.0023 5.46754C22.4331 5.8991 22.7 6.49386 22.7 7.15185C22.7 7.8091 22.4331 8.40459 22.0023 8.83615C21.5715 9.2677 20.976 9.53383 20.318 9.53383C19.6769 9.53383 19.094 9.2802 18.6661 8.86702L14.5792 11.4674C14.7012 11.7842 14.7681 12.1283 14.7681 12.4878C14.7681 12.6407 14.7564 12.7907 14.7329 12.937L18.8344 14.4698C18.919 14.3449 19.016 14.2272 19.1226 14.1214C19.5542 13.6905 20.1489 13.4237 20.8069 13.4237C21.4642 13.4237 22.0597 13.6905 22.4912 14.1214C22.9228 14.5522 23.1889 15.1477 23.1889 15.8057C23.1889 16.4629 22.922 17.0592 22.4912 17.49C22.0604 17.9208 21.4649 18.1877 20.8069 18.1877C20.1497 18.1877 19.5542 17.9208 19.1226 17.49C18.6918 17.0592 18.4249 16.4637 18.4249 15.8057C18.4249 15.7094 18.4308 15.6138 18.4418 15.5197L14.3403 13.9868C14.2256 14.1706 14.0903 14.3412 13.9374 14.4941C13.5499 14.8815 13.0515 15.1572 12.4942 15.269V19.3029C12.9258 19.4081 13.3117 19.6293 13.6161 19.9337C14.0469 20.3653 14.3138 20.96 14.3138 21.618C14.3138 22.2753 14.0469 22.8708 13.6161 23.3023C13.1853 23.7331 12.5898 24 11.9318 24C11.2746 24 10.6783 23.7331 10.2475 23.3023C9.8167 22.8715 9.54983 22.276 9.54983 21.618C9.54983 20.9608 9.8167 20.3653 10.2475 19.9337C10.5519 19.6293 10.9378 19.4073 11.3694 19.3029V15.269C10.8121 15.1565 10.3137 14.8808 9.92624 14.4941C9.81302 14.3809 9.71009 14.2588 9.61746 14.128L5.03508 16.1578C5.05934 16.2953 5.07257 16.4372 5.07257 16.582C5.07257 17.2393 4.8057 17.8355 4.37488 18.2663C3.94333 18.6979 3.34857 18.964 2.69058 18.964C2.03333 18.964 1.43783 18.6971 1.00628 18.2663C0.575465 17.8355 0.308594 17.24 0.308594 16.582C0.308594 15.9248 0.575465 15.3293 1.00628 14.8977C1.4371 14.4669 2.03259 14.2 2.69058 14.2C3.34783 14.2 3.94333 14.4669 4.37488 14.8977C4.44767 14.9705 4.51604 15.0484 4.57926 15.1308L9.16165 13.1009C9.11827 12.9032 9.09475 12.6981 9.09475 12.4878C9.09475 12.2628 9.12121 12.0445 9.17047 11.8342L6.37678 10.5484C6.31944 10.6204 6.25842 10.6895 6.19299 10.7542C5.76217 11.1851 5.16667 11.4519 4.50869 11.4519C3.85143 11.4519 3.2552 11.1851 2.82438 10.7542C2.39357 10.3234 2.1267 9.72792 2.1267 9.06993C2.1267 8.41268 2.39357 7.81718 2.82438 7.38563C3.2552 6.95482 3.8507 6.68795 4.50869 6.68795C5.16594 6.68795 5.76144 6.95482 6.19299 7.38563C6.6238 7.81645 6.89067 8.41195 6.89067 9.06993C6.89067 9.22653 6.87597 9.38018 6.84656 9.52869L9.63952 10.8153C9.72627 10.6969 9.82184 10.5859 9.92477 10.4822C10.3122 10.0948 10.8107 9.81908 11.3679 9.70734V4.69707C10.9364 4.59268 10.5504 4.37065 10.246 4.06629C9.81523 3.63474 9.54836 3.03998 9.54836 2.38199C9.54836 1.72474 9.81523 1.12924 10.246 0.697687C10.6769 0.266871 11.2724 0 11.9303 0C12.5876 0 13.1831 0.266871 13.6146 0.697687C14.0455 1.1285 14.3123 1.724 14.3123 2.38199C14.3123 3.03924 14.0455 3.63474 13.6146 4.06629C13.311 4.36992 12.925 4.59268 12.4928 4.69707V9.70734H12.4935ZM5.39752 8.18184C5.17035 7.95466 4.85569 7.81351 4.50869 7.81351C4.16168 7.81351 3.84702 7.95393 3.61985 8.18184C3.39268 8.40901 3.25153 8.72366 3.25153 9.07067C3.25153 9.41768 3.39195 9.73233 3.61985 9.9595C3.84702 10.1867 4.16168 10.3271 4.50869 10.3271C4.85569 10.3271 5.17035 10.1867 5.39752 9.9595C5.62469 9.73233 5.76585 9.41768 5.76585 9.07067C5.76585 8.72366 5.62543 8.40901 5.39752 8.18184ZM3.57868 15.6932C3.35151 15.466 3.03685 15.3249 2.68985 15.3249C2.34284 15.3249 2.02818 15.4653 1.80101 15.6932C1.57384 15.9204 1.43269 16.235 1.43269 16.582C1.43269 16.929 1.57311 17.2437 1.80101 17.4709C2.02818 17.698 2.34284 17.8384 2.68985 17.8384C3.03685 17.8384 3.35151 17.698 3.57868 17.4709C3.80585 17.2437 3.94627 16.929 3.94627 16.582C3.94627 16.235 3.80585 15.9204 3.57868 15.6932ZM12.8199 20.7292C12.5927 20.502 12.2781 20.3616 11.9311 20.3616C11.5841 20.3616 11.2694 20.502 11.0422 20.7299C10.8151 20.9571 10.6747 21.2717 10.6747 21.6187C10.6747 21.9658 10.8151 22.2804 11.0422 22.5076C11.2694 22.7348 11.5841 22.8759 11.9311 22.8759C12.2781 22.8759 12.5927 22.7355 12.8199 22.5076C13.0471 22.2804 13.1882 21.9658 13.1882 21.6187C13.1882 21.2717 13.0478 20.9571 12.8199 20.7299V20.7292ZM21.695 14.9161C21.4679 14.6889 21.1532 14.5478 20.8062 14.5478C20.4592 14.5478 20.1445 14.6882 19.9174 14.9161C19.6902 15.1433 19.5498 15.4579 19.5498 15.8049C19.5498 16.1519 19.6902 16.4666 19.9174 16.6938C20.1445 16.9209 20.4592 17.0614 20.8062 17.0614C21.1532 17.0614 21.4679 16.9209 21.695 16.6938C21.9222 16.4666 22.0626 16.1519 22.0626 15.8049C22.0626 15.4579 21.9222 15.1433 21.695 14.9161ZM21.2069 6.26301C20.9797 6.03584 20.665 5.89542 20.318 5.89542C19.971 5.89542 19.6564 6.03584 19.4292 6.26375C19.202 6.49092 19.0609 6.80558 19.0609 7.15258C19.0609 7.49959 19.2013 7.81424 19.4292 8.04142C19.6564 8.26859 19.971 8.40901 20.318 8.40901C20.665 8.40901 20.9797 8.26859 21.2069 8.04142C21.434 7.81424 21.5752 7.49959 21.5752 7.15258C21.5752 6.80558 21.4348 6.49092 21.2069 6.26375V6.26301ZM12.8199 1.49315C12.5927 1.26598 12.2781 1.12483 11.9311 1.12483C11.5841 1.12483 11.2694 1.26525 11.0422 1.49315C10.8151 1.72032 10.6747 2.03498 10.6747 2.38199C10.6747 2.72899 10.8151 3.04365 11.0422 3.27082C11.2694 3.49799 11.5841 3.63841 11.9311 3.63841C12.2781 3.63841 12.5927 3.49799 12.8199 3.27082C13.0471 3.04365 13.1882 2.72899 13.1882 2.38199C13.1882 2.03498 13.0478 1.72032 12.8199 1.49315ZM13.1419 11.2777C12.8324 10.9682 12.4038 10.777 11.9318 10.777C11.4591 10.777 11.0312 10.9689 10.7217 11.2777C10.4122 11.5872 10.2203 12.0158 10.2203 12.4878C10.2203 12.9605 10.4122 13.3884 10.7217 13.6979C11.0312 14.0074 11.4598 14.1993 11.9318 14.1993C12.4045 14.1993 12.8324 14.0074 13.1419 13.6979C13.4514 13.3884 13.6433 12.9605 13.6433 12.4878C13.6433 12.0151 13.4514 11.5872 13.1419 11.2777Z" fill="#303833"/>
</svg>
