<svg width="25" height="24" viewBox="0 0 25 24" fill="none" xmlns="http://www.w3.org/2000/svg">
<path d="M10.27 2.54865C10.2463 2.49183 10.2577 2.42934 10.3022 2.38483L12.643 0.0440327C12.6998 -0.0146776 12.7954 -0.0146776 12.8542 0.0440327L15.194 2.38483C15.2376 2.42839 15.2508 2.49089 15.2271 2.54865C15.2035 2.60452 15.1504 2.6405 15.0889 2.6405H13.8929C13.8105 2.6405 13.7443 2.70868 13.7443 2.79012V4.93493H11.7529V2.79106C11.7529 2.70868 11.6847 2.64145 11.6033 2.64145H10.4092C10.3457 2.6405 10.2927 2.60452 10.27 2.54865ZM15.0889 21.3595H13.893C13.8106 21.3595 13.7443 21.2913 13.7443 21.2099V19.0651H11.7529V21.2099C11.7529 21.2923 11.6847 21.3595 11.6033 21.3595H10.4092C10.3467 21.3595 10.2937 21.3955 10.271 21.4513C10.2473 21.5082 10.2587 21.5707 10.3032 21.6152L12.644 23.956C12.7008 24.0147 12.7964 24.0147 12.8551 23.956L15.195 21.6152C15.2385 21.5716 15.2518 21.5091 15.2281 21.4513C15.2035 21.3955 15.1505 21.3595 15.0889 21.3595ZM24.7031 11.894L22.3632 9.55315C22.3197 9.5096 22.2572 9.49729 22.1994 9.52096C22.1426 9.54463 22.1076 9.59671 22.1076 9.65921V10.8533C22.1076 10.9357 22.0394 11.0029 21.9579 11.0029H19.8131V12.9943H21.9579C22.0403 12.9943 22.1076 13.0625 22.1076 13.1439V14.338C22.1076 14.4005 22.1426 14.4526 22.1994 14.4762C22.2562 14.4999 22.3187 14.4886 22.3632 14.444L24.7031 12.1032C24.7618 12.0474 24.7618 11.9527 24.7031 11.894ZM3.38956 10.8542V9.66013C3.38956 9.59764 3.35357 9.54555 3.29676 9.52188C3.23994 9.49821 3.17744 9.50957 3.13483 9.55408L0.794033 11.8949C0.735322 11.9536 0.735322 12.0473 0.794033 12.106L3.13483 14.4468C3.17744 14.4904 3.23994 14.5027 3.29676 14.479C3.35357 14.4554 3.38956 14.4033 3.38956 14.3408V13.1467C3.38956 13.0643 3.45584 12.9971 3.53822 12.9971H5.68303V11.0057H3.53822C3.45584 11.0038 3.38956 10.9366 3.38956 10.8542ZM11.4423 10.1118L12.3154 9.42436C12.4432 9.32304 12.5957 9.27285 12.7481 9.27285C12.9006 9.27285 13.054 9.32304 13.1828 9.42436L14.054 10.1118V5.70861H11.4425L11.4423 10.1118ZM19.0405 6.58252V17.4172C19.0405 17.8983 18.6476 18.2912 18.1665 18.2912H7.33181C6.85077 18.2912 6.45779 17.8983 6.45779 17.4172V6.58252C6.45779 6.10147 6.85077 5.70849 7.33181 5.70849H10.6699V10.2603C10.6699 10.3929 10.7068 10.5207 10.7778 10.6305C10.8469 10.7423 10.9454 10.8313 11.0657 10.89C11.1878 10.9497 11.3176 10.9714 11.4454 10.9582C11.5742 10.944 11.6973 10.8947 11.8043 10.8105L12.7484 10.0671L13.6934 10.8095C13.7994 10.8928 13.9235 10.9421 14.0523 10.9572C14.1811 10.9705 14.3117 10.9497 14.432 10.8891C14.54 10.837 14.6271 10.7631 14.6952 10.6703C14.7047 10.658 14.7151 10.6447 14.7227 10.6305C14.7918 10.5216 14.8288 10.3938 14.8288 10.2603V5.70849H18.1668C18.6478 5.70849 19.0408 6.10147 19.0408 6.58252H19.0405ZM10.7766 16.0197C10.7766 15.8057 10.6024 15.6333 10.3903 15.6333H8.32598C8.11197 15.6333 7.93773 15.8066 7.93773 16.0197C7.93773 16.2337 8.11196 16.4061 8.32598 16.4061H10.3903C10.6024 16.4061 10.7766 16.2337 10.7766 16.0197ZM10.7766 14.6874C10.7766 14.4734 10.6024 14.301 10.3903 14.301H8.32598C8.11197 14.301 7.93773 14.4743 7.93773 14.6874C7.93773 14.9014 8.11196 15.0737 8.32598 15.0737H10.3903C10.6024 15.0737 10.7766 14.9014 10.7766 14.6874Z" fill="#303833"/>
</svg>
