<svg width="23" height="24" viewBox="0 0 23 24" fill="none" xmlns="http://www.w3.org/2000/svg">
<path fill-rule="evenodd" clip-rule="evenodd" d="M13.6277 3.87599C13.6277 3.79952 13.6581 3.72618 13.7121 3.6721C13.7662 3.61803 13.8395 3.58765 13.916 3.58765C13.9925 3.58765 14.0658 3.61803 14.1199 3.6721C14.174 3.72618 14.2044 3.79952 14.2044 3.87599C14.2044 3.99265 14.2507 4.10454 14.3332 4.18705C14.4156 4.26956 14.5275 4.31596 14.6441 4.31603C14.7014 4.3161 14.7581 4.30486 14.811 4.28296C14.8639 4.26106 14.912 4.22892 14.9524 4.18839C15.0361 4.10491 15.0838 3.992 15.0853 3.87381C15.0883 3.59093 14.8393 3.51686 14.584 3.44143C14.1194 3.3034 13.6452 3.16292 13.629 2.42552C13.629 2.38698 13.6277 2.43454 13.6277 2.4042C13.6279 2.27334 13.6541 2.14383 13.7049 2.0232C13.7556 1.90256 13.8298 1.79322 13.9231 1.70151C14.0439 1.58177 14.1926 1.49396 14.3558 1.44596V1.1639C14.3558 1.08743 14.3862 1.01409 14.4402 0.96001C14.4943 0.905935 14.5677 0.875555 14.6441 0.875555C14.7206 0.875555 14.7939 0.905935 14.848 0.96001C14.9021 1.01409 14.9325 1.08743 14.9325 1.1639V1.44487C15.1427 1.50724 15.3271 1.63583 15.4583 1.8115C15.5895 1.98717 15.6604 2.20052 15.6606 2.41978C15.6618 2.45837 15.6552 2.49681 15.6412 2.53282C15.6273 2.56883 15.6063 2.60166 15.5794 2.62938C15.5525 2.6571 15.5203 2.67914 15.4848 2.69419C15.4492 2.70925 15.411 2.717 15.3724 2.717C15.3338 2.717 15.2955 2.70925 15.26 2.69419C15.2244 2.67914 15.1922 2.6571 15.1654 2.62938C15.1385 2.60166 15.1174 2.56883 15.1035 2.53282C15.0895 2.49681 15.083 2.45837 15.0842 2.41978C15.0841 2.30312 15.0377 2.19127 14.9552 2.1088C14.8727 2.02634 14.7608 1.98002 14.6441 1.98002H14.6247C14.5133 1.9847 14.4076 2.03091 14.3284 2.10957C14.2892 2.14809 14.258 2.19402 14.2367 2.24469C14.2153 2.29536 14.2043 2.34976 14.2041 2.40475C14.2041 2.44547 14.2027 2.38671 14.2041 2.41486C14.2109 2.73108 14.4815 2.81144 14.7472 2.89015C15.2118 3.02681 15.6685 3.16347 15.6603 3.879C15.6579 4.14829 15.5499 4.40588 15.3597 4.59645C15.2407 4.71582 15.0938 4.80349 14.9322 4.85145V5.13269C14.9322 5.20917 14.9018 5.28251 14.8477 5.33658C14.7937 5.39066 14.7203 5.42104 14.6439 5.42104C14.5674 5.42104 14.494 5.39066 14.44 5.33658C14.3859 5.28251 14.3555 5.20917 14.3555 5.13269V4.8509C14.1453 4.78854 13.9609 4.65994 13.8297 4.48427C13.6985 4.3086 13.6278 4.09525 13.6277 3.87599ZM3.8977 15.2612L0.546875 15.5254L1.17276 23.4581L4.52332 23.1938L3.89852 15.2612H3.8977ZM4.57825 16.5657L4.99506 21.8508L5.17435 21.8188C5.95411 21.6797 7.36086 21.4282 8.16358 21.6608C8.90202 21.9045 9.59931 22.2587 10.2317 22.7111C10.5625 22.9251 10.8937 23.1392 11.2646 23.3318C11.4603 23.4335 11.6598 23.5442 11.8345 23.6412C12.7949 24.1736 12.8326 24.1944 14.8721 23.1457C15.6436 22.7489 16.8916 22.103 18.1313 21.4596C19.4378 20.7815 20.6805 20.1346 21.3469 19.7856C21.5062 19.702 21.6415 19.6347 21.7749 19.5686C22.3095 19.3035 22.8192 19.0507 22.9124 18.8096C22.9674 18.672 22.9656 18.5183 22.9072 18.3821C22.8427 18.2326 22.7262 18.1114 22.5792 18.041C22.4512 17.9967 22.3148 17.9817 22.1802 17.9973C21.9178 18.0169 21.6578 18.0617 21.404 18.1312C20.912 18.2575 20.2197 18.4461 19.4025 18.6762C18.5984 18.9025 17.6949 19.163 16.7639 19.4371C16.6862 19.544 16.587 19.6334 16.4726 19.6995C16.1771 19.8529 15.8516 19.9398 15.519 19.9542C14.9776 20.0089 14.1811 20.0037 13.4497 19.9999C13.0515 19.998 12.6727 19.996 12.3669 20.0037C12.0769 20.0051 11.7875 20.0308 11.5018 20.0805C11.3828 20.101 11.2675 20.1392 11.1596 20.1936C11.0226 20.2664 10.8956 20.3565 10.7817 20.4618L10.7729 20.4691C10.7144 20.5178 10.639 20.5411 10.5633 20.5341C10.4875 20.5271 10.4177 20.4903 10.3691 20.4318C10.3205 20.3733 10.2971 20.2979 10.3041 20.2222C10.3111 20.1465 10.3479 20.0766 10.4064 20.028C10.5545 19.8919 10.7199 19.7759 10.8984 19.6831C11.0532 19.6034 11.219 19.5471 11.3903 19.5158C11.7088 19.4607 12.0313 19.4321 12.3546 19.4303C12.6631 19.4224 13.0482 19.4245 13.453 19.4265C14.1683 19.4303 14.947 19.4341 15.4638 19.383C15.7118 19.3749 15.9553 19.315 16.1788 19.2073C16.2648 19.1548 16.3298 19.0738 16.3624 18.9785C16.411 18.8567 16.4399 18.728 16.448 18.5972C16.4573 18.4838 16.4455 18.3696 16.4133 18.2605C16.3895 18.1787 16.3352 18.1093 16.2616 18.0664C16.0556 17.9637 15.8314 17.9026 15.6018 17.8866C15.3537 17.8538 15.0224 17.8319 14.649 17.8063C13.8542 17.7669 13.0626 17.6776 12.2789 17.539C11.283 17.3207 10.3065 17.0221 9.35878 16.6463C9.26121 16.61 9.17074 16.5763 9.03791 16.528C8.79819 16.4304 8.54895 16.358 8.29423 16.312C8.04225 16.2863 7.78831 16.2863 7.53633 16.312C7.19387 16.3345 6.69589 16.3757 6.12056 16.4263C5.46844 16.4837 5.00599 16.5258 4.57907 16.5651L4.57825 16.5657ZM21.6915 9.80363H18.7971H18.7944V9.80636V11.2924V11.2948H18.7971H21.6915L21.694 11.2935L21.6953 11.291V9.80609H21.6929L21.6915 9.80363ZM19.3096 10.5142C19.3119 10.4393 19.3433 10.3683 19.3971 10.3161C19.4509 10.2639 19.5229 10.2348 19.5978 10.2348C19.6727 10.2348 19.7447 10.2639 19.7985 10.3161C19.8523 10.3683 19.8837 10.4393 19.886 10.5142V10.5839C19.8872 10.6225 19.8806 10.661 19.8667 10.697C19.8527 10.733 19.8317 10.7658 19.8048 10.7935C19.7779 10.8213 19.7458 10.8433 19.7102 10.8584C19.6746 10.8734 19.6364 10.8812 19.5978 10.8812C19.5592 10.8812 19.521 10.8734 19.4854 10.8584C19.4499 10.8433 19.4177 10.8213 19.3908 10.7935C19.3639 10.7658 19.3429 10.733 19.3289 10.697C19.315 10.661 19.3084 10.6225 19.3096 10.5839V10.5142ZM19.1647 6.18468H19.8051C20.0941 6.18214 20.3736 6.28794 20.5884 6.48122C20.6855 6.56735 20.7635 6.67282 20.8175 6.79086C20.8714 6.90891 20.9001 7.03692 20.9016 7.16669V9.22584H18.7971C18.7209 9.22578 18.6455 9.24079 18.5751 9.27001C18.5048 9.29923 18.4409 9.34209 18.3872 9.39611C18.3332 9.44986 18.2903 9.51374 18.2611 9.5841C18.2319 9.65446 18.2169 9.7299 18.2169 9.80609V11.2921C18.2169 11.3683 18.2319 11.4437 18.2611 11.5141C18.2904 11.5844 18.3332 11.6483 18.3872 11.7021C18.4409 11.7561 18.5048 11.7989 18.5751 11.8282C18.6455 11.8574 18.7209 11.8724 18.7971 11.8723H20.9016V13.63C20.9001 13.7598 20.8714 13.8878 20.8175 14.0059C20.7636 14.1239 20.6855 14.2294 20.5884 14.3155C20.3736 14.5088 20.0941 14.6146 19.8051 14.612H10.2741C9.98512 14.6146 9.70566 14.5088 9.4908 14.3155C9.39369 14.2294 9.31566 14.1239 9.26172 14.0059C9.20778 13.8878 9.17912 13.7598 9.17758 13.63V6.04392C9.34382 6.13703 9.5312 6.18587 9.72175 6.18577L19.1647 6.18468ZM16.6601 5.60798C17.0089 5.32074 17.2923 4.96237 17.4915 4.55682C17.554 4.42965 17.6077 4.29833 17.6522 4.16379C17.6557 4.14943 17.6602 4.13535 17.6659 4.1217C17.8156 3.64703 17.8514 3.14377 17.7704 2.65268C17.6894 2.1616 17.4938 1.69651 17.1995 1.29511C16.9052 0.893703 16.5205 0.56727 16.0765 0.342263C15.6326 0.117255 15.1419 0 14.6441 0C14.1464 0 13.6557 0.117255 13.2117 0.342263C12.7678 0.56727 12.3831 0.893703 12.0888 1.29511C11.7945 1.69651 11.5989 2.1616 11.5179 2.65268C11.4368 3.14377 11.4726 3.64703 11.6224 4.1217C11.628 4.13535 11.6326 4.14943 11.636 4.16379C11.6806 4.29829 11.7343 4.4296 11.7967 4.55682C11.996 4.96231 12.2795 5.32066 12.6282 5.60798H16.6601ZM18.1343 4.51965H18.8764V5.60798H17.4789C17.6885 5.36537 17.866 5.09688 18.0073 4.80909C18.0537 4.71489 18.0961 4.61822 18.1343 4.51965ZM11.8093 5.60908H9.7212C9.57688 5.60908 9.43847 5.55175 9.33641 5.44969C9.23436 5.34764 9.17703 5.20923 9.17703 5.06491C9.17703 4.92059 9.23436 4.78218 9.33641 4.68012C9.43847 4.57807 9.57688 4.52074 9.7212 4.52074H11.1539C11.1922 4.61913 11.2345 4.71552 11.281 4.80991C11.4222 5.09779 11.5998 5.36637 11.8093 5.60908Z" fill="#303833"/>
</svg>
