<svg width="23" height="24" viewBox="0 0 23 24" fill="none" xmlns="http://www.w3.org/2000/svg">
<path d="M20.6799 9.39942C20.8319 9.0204 20.8822 8.91973 21.0332 8.54071L22.2966 8.36404C22.6253 8.3137 22.878 8.03535 22.878 7.68201V6.19062C22.878 5.86194 22.6253 5.55893 22.2966 5.50859L21.0332 5.33192C20.8812 4.9529 20.8309 4.85223 20.6799 4.47321L21.4379 3.43683C21.6402 3.15848 21.6146 2.77946 21.3619 2.55245L20.3512 1.51607C20.0985 1.26339 19.7195 1.23772 19.4668 1.44007L18.4304 2.1981C18.0514 2.0461 17.9507 1.99576 17.5717 1.84476L17.395 0.581363C17.3447 0.252679 17.0663 0 16.713 0H15.2473C14.9186 0 14.6156 0.252679 14.5652 0.581363L14.3886 1.84476C14.0095 1.99676 13.9089 2.0471 13.5299 2.1981L12.4935 1.44007C12.2151 1.23773 11.8361 1.26339 11.6091 1.51607L10.5727 2.55245C10.32 2.80513 10.2944 3.18415 10.4967 3.43683L11.2547 4.47321C11.1027 4.85223 11.0524 4.9529 10.9014 5.33192L9.638 5.50859C9.30932 5.55893 9.05664 5.83728 9.05664 6.19062V7.65636C9.05664 8.00971 9.30932 8.28806 9.638 8.33839L10.9014 8.51507C11.0534 8.89408 11.1037 8.99475 11.2547 9.37377L10.4967 10.3845C10.2944 10.6628 10.32 11.0419 10.5727 11.2689L11.6091 12.3052C11.8618 12.5579 12.2408 12.5836 12.4935 12.3812L13.5299 11.6232C13.9089 11.7752 14.0095 11.8256 14.3886 11.9766L14.5652 13.2399C14.6156 13.5686 14.8939 13.8213 15.2473 13.8213H16.713C17.0417 13.8213 17.3447 13.5686 17.395 13.2399L17.5717 11.9766C17.9507 11.8246 18.0514 11.7742 18.4304 11.6232L19.4668 12.3812C19.7451 12.5836 20.1242 12.5579 20.3512 12.3052L21.3876 11.2689C21.6402 11.0162 21.6659 10.6372 21.4636 10.3845L20.6799 9.39942ZM15.9795 9.75375C14.4378 9.75375 13.1743 8.49036 13.1743 6.94851C13.1743 5.40667 14.4377 4.14328 15.9795 4.14328C17.5213 4.14328 18.7848 5.40667 18.7848 6.94851C18.7848 8.49036 17.5214 9.75375 15.9795 9.75375Z" fill="#303833"/>
<path d="M20.8816 15.3128L17.2178 16.1468C17.2178 16.2228 17.2178 16.2988 17.1921 16.3738C17.0658 17.4102 16.2318 18.2186 15.221 18.3449L14.994 18.3706C13.6546 18.5473 12.2906 18.5976 10.9512 18.5473L9.83979 18.4969C9.66311 18.4969 9.5111 18.4209 9.38476 18.2946C9.25843 18.1682 9.20809 17.9916 9.20809 17.8149C9.20809 17.6382 9.28409 17.4862 9.41043 17.3599C9.53677 17.2335 9.71344 17.1832 9.89011 17.1832L11.0015 17.2335C12.2906 17.2839 13.5541 17.2335 14.8174 17.0815L15.0445 17.0559C15.4995 17.0055 15.8282 16.6512 15.9032 16.1972C15.9288 15.9445 15.8775 15.6661 15.7008 15.4648C15.5241 15.2625 15.2961 15.1361 15.0435 15.0858L9.28213 14.4284C8.65043 14.3524 8.01874 14.5044 7.46305 14.8331L3.77344 17.2079L7.03248 21.983L11.8334 22.8417C12.6674 22.9937 13.5261 22.816 14.2338 22.362L21.7884 17.3845C22.0668 17.2078 22.2434 16.9295 22.2938 16.6008C22.3441 16.2721 22.2681 15.9691 22.0411 15.6908C21.74 15.3631 21.285 15.2111 20.8813 15.3127L20.8816 15.3128Z" fill="#303833"/>
<path d="M0.869284 19.2032C0.616606 19.3799 0.5406 19.7086 0.717283 19.9613L3.32012 23.7515C3.4968 24.0041 3.82548 24.0801 4.07816 23.9035L5.94758 22.6144L2.73982 17.9141L0.869284 19.2032Z" fill="#303833"/>
</svg>
