<svg width="25" height="24" viewBox="0 0 25 24" fill="none" xmlns="http://www.w3.org/2000/svg">
<path d="M24.754 6.54395C24.7534 6.34244 24.697 6.14504 24.5911 5.97362C24.4851 5.80219 24.3338 5.66346 24.1538 5.57278L13.2418 0.116728C13.0894 0.0399788 12.9213 0 12.7507 0C12.5802 0 12.412 0.0399788 12.2597 0.116728L1.34757 5.57278C1.16883 5.66435 1.01882 5.80347 0.914077 5.97483C0.809331 6.14618 0.753906 6.34312 0.753906 6.54395C0.753906 6.74479 0.809331 6.94172 0.914077 7.11308C1.01882 7.28443 1.16883 7.42356 1.34757 7.51513L4.85035 9.27198L1.34757 11.0288C1.16883 11.1204 1.01882 11.2595 0.914077 11.4309C0.809331 11.6022 0.753906 11.7992 0.753906 12C0.753906 12.2008 0.809331 12.3978 0.914077 12.5691C1.01882 12.7405 1.16883 12.8796 1.34757 12.9712L4.85035 14.728L1.34757 16.4849C1.16883 16.5764 1.01882 16.7156 0.914077 16.8869C0.809331 17.0583 0.753906 17.2552 0.753906 17.456C0.753906 17.6569 0.809331 17.8538 0.914077 18.0252C1.01882 18.1965 1.16883 18.3357 1.34757 18.4272L12.2597 23.8833C12.412 23.96 12.5802 24 12.7507 24C12.9213 24 13.0894 23.96 13.2418 23.8833L24.1538 18.4272C24.3326 18.3357 24.4826 18.1965 24.5873 18.0252C24.6921 17.8538 24.7475 17.6569 24.7475 17.456C24.7475 17.2552 24.6921 17.0583 24.5873 16.8869C24.4826 16.7156 24.3326 16.5764 24.1538 16.4849L20.6511 14.728L24.1538 12.9712C24.3326 12.8796 24.4826 12.7405 24.5873 12.5691C24.6921 12.3978 24.7475 12.2008 24.7475 12C24.7475 11.7992 24.6921 11.6022 24.5873 11.4309C24.4826 11.2595 24.3326 11.1204 24.1538 11.0288L20.6511 9.27198L24.1538 7.51513C24.3338 7.42445 24.4851 7.28571 24.5911 7.11429C24.697 6.94287 24.7534 6.74546 24.754 6.54395ZM21.2185 17.456L12.7507 21.6899L4.28292 17.456L7.29466 15.9502L12.2597 18.4272C12.412 18.504 12.5802 18.544 12.7507 18.544C12.9213 18.544 13.0894 18.504 13.2418 18.4272L18.2068 15.9502L21.2185 17.456ZM21.2185 12L12.7507 16.2339L4.28292 12L7.29466 10.4941L12.2597 12.9712C12.412 13.0479 12.5802 13.0879 12.7507 13.0879C12.9213 13.0879 13.0894 13.0479 13.2418 12.9712L18.2068 10.4941L21.2185 12ZM12.7507 10.7778L4.28292 6.54395L12.7507 2.31006L21.2185 6.54395L12.7507 10.7778Z" fill="#303833"/>
</svg>
