<svg width="49" height="40" viewBox="0 0 49 40" fill="none" xmlns="http://www.w3.org/2000/svg">
<path fill-rule="evenodd" clip-rule="evenodd" d="M37.1179 14.4022H11.9156C10.6063 14.4066 9.35191 14.9287 8.42609 15.8545C7.50027 16.7804 6.97817 18.0348 6.97372 19.3441V35.0581C6.97817 36.3674 7.50027 37.6218 8.42609 38.5476C9.35191 39.4735 10.6063 39.9955 11.9156 40H37.1179C38.4272 39.9957 39.6817 39.4736 40.6076 38.5478C41.5334 37.6219 42.0555 36.3675 42.0598 35.0581V19.3462C42.056 18.0365 41.5342 16.7814 40.6083 15.8551C39.6824 14.9288 38.4276 14.4065 37.1179 14.4022ZM5.80492 20.2049H3.29621C2.62164 20.2073 1.97538 20.4763 1.49838 20.9533C1.02139 21.4303 0.752366 22.0766 0.75 22.7512V31.6531C0.752366 32.3277 1.02139 32.974 1.49838 33.451C1.97538 33.9279 2.62164 34.197 3.29621 34.1993H5.80492V20.2034V20.2049ZM43.2286 34.2009H45.7373C46.4121 34.1985 47.0586 33.9293 47.5357 33.452C48.0127 32.9746 48.2815 32.328 48.2835 31.6531V22.7512C48.2811 22.0766 48.0121 21.4303 47.5351 20.9533C47.0581 20.4763 46.4118 20.2073 45.7373 20.2049H43.2286V34.2009ZM28.9733 33.4684C29.0515 33.466 29.1294 33.4794 29.2024 33.5077C29.2753 33.536 29.3418 33.5787 29.398 33.6332C29.4542 33.6877 29.4988 33.7529 29.5293 33.825C29.5598 33.897 29.5755 33.9745 29.5755 34.0528C29.5755 34.131 29.5598 34.2085 29.5293 34.2806C29.4988 34.3526 29.4542 34.4179 29.398 34.4724C29.3418 34.5269 29.2753 34.5695 29.2024 34.5978C29.1294 34.6261 29.0515 34.6395 28.9733 34.6372H20.0602C19.982 34.6395 19.9041 34.6261 19.8311 34.5978C19.7582 34.5695 19.6916 34.5269 19.6355 34.4724C19.5793 34.4179 19.5347 34.3526 19.5042 34.2806C19.4737 34.2085 19.458 34.131 19.458 34.0528C19.458 33.9745 19.4737 33.897 19.5042 33.825C19.5347 33.7529 19.5793 33.6877 19.6355 33.6332C19.6916 33.5787 19.7582 33.536 19.8311 33.5077C19.9041 33.4794 19.982 33.466 20.0602 33.4684H28.9733ZM14.0742 23.2355C14.0787 23.0835 14.1423 22.9393 14.2514 22.8335C14.3605 22.7276 14.5065 22.6684 14.6586 22.6684C14.8106 22.6684 14.9566 22.7276 15.0657 22.8335C15.1748 22.9393 15.2384 23.0835 15.243 23.2355V28.0364C15.2384 28.1883 15.1748 28.3325 15.0657 28.4384C14.9566 28.5442 14.8106 28.6034 14.6586 28.6034C14.5065 28.6034 14.3605 28.5442 14.2514 28.4384C14.1423 28.3325 14.0787 28.1883 14.0742 28.0364V23.2355ZM33.7905 23.2355C33.7951 23.0835 33.8587 22.9393 33.9678 22.8335C34.0769 22.7276 34.2229 22.6684 34.3749 22.6684C34.5269 22.6684 34.673 22.7276 34.7821 22.8335C34.8912 22.9393 34.9548 23.0835 34.9593 23.2355V28.0364C34.9548 28.1883 34.8912 28.3325 34.7821 28.4384C34.673 28.5442 34.5269 28.6034 34.3749 28.6034C34.2229 28.6034 34.0769 28.5442 33.9678 28.4384C33.8587 28.3325 33.7951 28.1883 33.7905 28.0364V23.2355ZM21.9072 6.30298C22.4562 6.85334 23.1654 7.21571 23.9331 7.33815V13.2355H25.1019V7.33815C25.9206 7.20707 26.6713 6.80428 27.2332 6.19464C27.7951 5.585 28.1354 4.80399 28.1994 3.97738C28.2635 3.15077 28.0474 2.32668 27.5861 1.6378C27.1248 0.948916 26.445 0.435346 25.6563 0.179787C24.8676 -0.075772 24.0158 -0.0584456 23.2381 0.228976C22.4605 0.516398 21.8022 1.05719 21.3692 1.76426C20.9363 2.47133 20.754 3.30353 20.8515 4.12685C20.9491 4.95017 21.3209 5.71669 21.9072 6.30298Z" fill="#303833"/>
</svg>
