<svg width="44" height="40" viewBox="0 0 44 40" fill="none" xmlns="http://www.w3.org/2000/svg">
<path d="M35.3654 23.0769C33.6918 23.0769 32.0559 23.5732 30.6644 24.5029C29.2729 25.4327 28.1884 26.7542 27.5479 28.3004C26.9075 29.8465 26.7399 31.5478 27.0664 33.1892C27.3929 34.8306 28.1988 36.3383 29.3822 37.5217C30.5655 38.705 32.0732 39.5109 33.7146 39.8374C35.356 40.1639 37.0573 39.9963 38.6035 39.3559C40.1496 38.7155 41.4711 37.6309 42.4009 36.2394C43.3307 34.8479 43.8269 33.212 43.8269 31.5385C43.8244 29.2951 42.9321 27.1443 41.3458 25.558C39.7595 23.9718 37.6087 23.0795 35.3654 23.0769ZM36.1346 30.7692C36.5425 30.7697 36.9335 30.9319 37.222 31.2203C37.5104 31.5088 37.6726 31.8998 37.6731 32.3077V33.0769C37.6726 33.4848 37.5104 33.8758 37.222 34.1643C36.9335 34.4527 36.5425 34.6149 36.1346 34.6154C36.1346 34.8194 36.0536 35.0151 35.9093 35.1593C35.7651 35.3036 35.5694 35.3846 35.3654 35.3846C35.1614 35.3846 34.9657 35.3036 34.8215 35.1593C34.6772 35.0151 34.5962 34.8194 34.5962 34.6154H33.8269C33.6229 34.6154 33.4272 34.5343 33.283 34.3901C33.1387 34.2458 33.0577 34.0502 33.0577 33.8462C33.0577 33.6421 33.1387 33.4465 33.283 33.3022C33.4272 33.158 33.6229 33.0769 33.8269 33.0769H36.1346V32.3077H34.5962C34.1883 32.3072 33.7972 32.145 33.5088 31.8566C33.2204 31.5682 33.0582 31.1771 33.0577 30.7692V30C33.0582 29.5921 33.2204 29.2011 33.5088 28.9127C33.7972 28.6242 34.1883 28.462 34.5962 28.4615C34.5962 28.2575 34.6772 28.0619 34.8215 27.9176C34.9657 27.7733 35.1614 27.6923 35.3654 27.6923C35.5694 27.6923 35.7651 27.7733 35.9093 27.9176C36.0536 28.0619 36.1346 28.2575 36.1346 28.4615H36.9038C37.1079 28.4615 37.3035 28.5426 37.4478 28.6868C37.592 28.8311 37.6731 29.0268 37.6731 29.2308C37.6731 29.4348 37.592 29.6304 37.4478 29.7747C37.3035 29.919 37.1079 30 36.9038 30H34.5962V30.7692H36.1346ZM6.13461 11.5385V23.8462H23.0585L23.0577 11.5385H6.13461ZM18.8502 18.3447L12.6964 22.1909C12.5799 22.2636 12.4461 22.3038 12.3088 22.3073C12.1716 22.3109 12.0359 22.2777 11.9158 22.2111C11.7957 22.1446 11.6956 22.0471 11.6259 21.9288C11.5561 21.8105 11.5193 21.6758 11.5192 21.5385V13.8462C11.5193 13.7089 11.5561 13.5741 11.6259 13.4558C11.6956 13.3375 11.7957 13.2401 11.9158 13.1735C12.0359 13.1069 12.1716 13.0737 12.3088 13.0773C12.4461 13.0808 12.5799 13.121 12.6964 13.1937L18.8502 17.0399C18.9608 17.1091 19.052 17.2053 19.1152 17.3194C19.1784 17.4335 19.2115 17.5619 19.2115 17.6923C19.2115 17.8228 19.1784 17.9511 19.1152 18.0652C19.052 18.1793 18.9608 18.2755 18.8502 18.3447ZM36.1346 1.53846C36.1341 1.13058 35.9719 0.739536 35.6835 0.45112C35.3951 0.162703 35.004 0.000466225 34.5962 0H2.28846C1.88058 0.000466225 1.48954 0.162703 1.20112 0.45112C0.912703 0.739536 0.750466 1.13058 0.75 1.53846V6.15385H36.1346V1.53846ZM4.59615 3.84615C4.44401 3.84615 4.29529 3.80104 4.16879 3.71651C4.04229 3.63199 3.9437 3.51185 3.88548 3.37129C3.82726 3.23074 3.81202 3.07607 3.8417 2.92685C3.87138 2.77764 3.94465 2.64057 4.05223 2.53299C4.1598 2.42542 4.29687 2.35215 4.44608 2.32247C4.5953 2.29279 4.74997 2.30803 4.89053 2.36625C5.03108 2.42447 5.15122 2.52306 5.23575 2.64956C5.32027 2.77606 5.36538 2.92478 5.36538 3.07692C5.36538 3.28094 5.28434 3.47659 5.14008 3.62085C4.99582 3.76511 4.80017 3.84615 4.59615 3.84615ZM7.67308 3.84615C7.52094 3.84615 7.37221 3.80104 7.24571 3.71651C7.11922 3.63199 7.02062 3.51185 6.9624 3.37129C6.90418 3.23074 6.88895 3.07607 6.91863 2.92685C6.94831 2.77764 7.02157 2.64057 7.12915 2.53299C7.23673 2.42542 7.37379 2.35215 7.52301 2.32247C7.67222 2.29279 7.82689 2.30803 7.96745 2.36625C8.10801 2.42447 8.22814 2.52306 8.31267 2.64956C8.39719 2.77606 8.44231 2.92478 8.44231 3.07692C8.44231 3.28094 8.36126 3.47659 8.217 3.62085C8.07275 3.76511 7.87709 3.84615 7.67308 3.84615ZM10.75 3.84615C10.5979 3.84615 10.4491 3.80104 10.3226 3.71651C10.1961 3.63199 10.0975 3.51185 10.0393 3.37129C9.9811 3.23074 9.96587 3.07607 9.99555 2.92685C10.0252 2.77764 10.0985 2.64057 10.2061 2.53299C10.3136 2.42542 10.4507 2.35215 10.5999 2.32247C10.7491 2.29279 10.9038 2.30803 11.0444 2.36625C11.1849 2.42447 11.3051 2.52306 11.3896 2.64956C11.4741 2.77606 11.5192 2.92478 11.5192 3.07692C11.5192 3.28094 11.4382 3.47659 11.2939 3.62085C11.1497 3.76511 10.954 3.84615 10.75 3.84615ZM13.0577 15.234L16.991 17.6923L13.0577 20.1506V15.234ZM35.3654 21.5385C35.625 21.5385 35.8799 21.5579 36.1346 21.5774V7.69231H0.75V32.3077C0.750466 32.7156 0.912703 33.1066 1.20112 33.395C1.48954 33.6834 1.88058 33.8457 2.28846 33.8462H25.6449C25.2895 32.3776 25.2727 30.8475 25.5958 29.3715C25.9189 27.8956 26.5734 26.5124 27.5099 25.3267C28.4464 24.141 29.6402 23.1838 31.0012 22.5275C32.3621 21.8712 33.8545 21.533 35.3654 21.5385ZM24.5962 23.8462C24.5957 24.254 24.4334 24.6451 24.145 24.9335C23.8566 25.2219 23.4656 25.3841 23.0577 25.3846H6.13461C5.72673 25.3841 5.33569 25.2219 5.04727 24.9335C4.75886 24.6451 4.59662 24.254 4.59615 23.8462V11.5385C4.59662 11.1306 4.75886 10.7395 5.04727 10.4511C5.33569 10.1627 5.72673 10.0005 6.13461 10H23.0577C23.4656 10.0005 23.8566 10.1627 24.145 10.4511C24.4334 10.7395 24.5957 11.1306 24.5962 11.5385V23.8462Z" fill="#303833"/>
</svg>
