<svg width="47" height="40" viewBox="0 0 47 40" fill="none" xmlns="http://www.w3.org/2000/svg">
<path d="M36.6072 10.5168C34.6806 10.7541 32.5958 10.8803 30.449 10.8803C28.2851 10.8803 26.2003 10.7541 24.2734 10.5168C22.0154 12.4283 19.6292 15.0028 17.8139 17.8128C19.2358 18.2874 20.2622 19.6133 20.2622 21.2084V23.088C20.2622 24.7453 19.1416 26.1201 17.6406 26.5457C18.1774 27.1767 18.5088 27.9827 18.5088 28.8679V30.7625C18.5088 31.6627 18.1774 32.4688 17.6406 33.0997C19.1416 33.5253 20.2622 34.9001 20.2622 36.5424V37.3315C23.0099 39.1319 26.5487 40.0001 30.4491 40.0001C39.1028 40.0001 46.1312 35.6892 46.1312 26.5608C46.1312 20.717 41.1253 14.3534 36.6073 10.5151L36.6072 10.5168ZM31.6013 32.011V33.7323C31.6013 33.9056 31.4582 34.0487 31.2698 34.0487H29.6107C29.4204 34.0487 29.2792 33.9075 29.2792 33.7323V32.0581C27.5729 31.9469 26.2 30.6362 26.0418 28.9468C26.0267 28.7566 26.1849 28.5984 26.3582 28.5984H28.0475C28.2057 28.5984 28.347 28.6926 28.379 28.8508C28.4731 29.3724 28.9477 29.751 29.4845 29.751H30.9685C31.8537 29.751 32.6277 29.1201 32.7219 28.267C32.833 27.2726 32.042 26.4345 31.0627 26.4345H29.9892C27.9044 26.4345 26.0569 24.9185 25.8346 22.8336C25.6293 20.6546 27.1925 18.775 29.2773 18.4907V16.8164C29.2773 16.6262 29.4185 16.4849 29.6087 16.4849H31.2679C31.4582 16.4849 31.5994 16.6262 31.5994 16.8164V18.4756C33.3057 18.6018 34.6636 19.9126 34.8368 21.5868C34.8519 21.777 34.6937 21.9352 34.5053 21.9352H32.831C32.6879 21.9352 32.5316 21.8411 32.4996 21.6979C32.3885 21.1612 31.9308 20.7977 31.379 20.7977H29.895C29.0268 20.7977 28.2528 21.4135 28.1416 22.2667C28.0475 23.2611 28.8366 24.1142 29.8008 24.1142H31.0645C33.4017 24.1142 35.2662 26.1199 35.044 28.4891C34.8538 30.3216 33.3697 31.7115 31.6013 32.011Z" fill="#303833"/>
<path d="M30.4496 8.43186C32.4704 8.43186 34.3819 8.30568 36.1672 8.08533C37.3367 5.58993 38.3951 2.98345 38.3951 1.84756C38.3951 0.141263 36.2783 -0.741995 34.9844 1.07351C33.2781 3.44273 32.5531 0 30.5944 0C28.6678 0.0150665 27.6414 3.19034 26.1404 1.05842C24.7825 -0.883258 22.4453 0.299449 22.4453 1.80046C22.4453 3.2845 23.3926 5.74788 24.4831 8.0551C26.3306 8.30747 28.3363 8.43365 30.4533 8.43365L30.4496 8.43186Z" fill="#303833"/>
<path d="M3.62797 34.9961H16.6531C17.5119 34.9961 18.2069 35.8549 18.2069 36.5498V38.4426C18.2069 39.3014 17.5119 39.9963 16.6531 39.9963H3.62797C2.76921 39.9963 2.07422 39.1376 2.07422 38.4426V36.5498C2.07422 35.6911 2.76916 34.9961 3.62797 34.9961Z" fill="#303833"/>
<path d="M1.88383 27.3237H14.909C15.7678 27.3237 16.4627 28.1825 16.4627 28.8775V30.7702C16.4627 31.629 15.7678 32.324 14.909 32.324H1.88383C1.02507 32.324 0.330078 31.4652 0.330078 30.7702V28.8775C0.330078 28.0187 1.02502 27.3237 1.88383 27.3237Z" fill="#303833"/>
<path d="M3.62797 19.6489H16.6531C17.5119 19.6489 18.2069 20.5077 18.2069 21.2027V23.0954C18.2069 23.9542 17.5119 24.6492 16.6531 24.6492H3.62797C2.76921 24.6492 2.07422 23.7904 2.07422 23.0954V21.2027C2.07422 20.3439 2.76916 19.6489 3.62797 19.6489Z" fill="#303833"/>
<path d="M1.88383 11.9761H14.909C15.7678 11.9761 16.4627 12.8348 16.4627 13.5298V15.4226C16.4627 16.2813 15.7678 16.9763 14.909 16.9763H1.88383C1.02507 16.9763 0.330078 16.1176 0.330078 15.4226V13.5298C0.330078 12.6711 1.02502 11.9761 1.88383 11.9761Z" fill="#303833"/>
</svg>
