<svg width="42" height="40" viewBox="0 0 42 40" fill="none" xmlns="http://www.w3.org/2000/svg">
<path fill-rule="evenodd" clip-rule="evenodd" d="M35.1607 16.3305V35.3341H39.6321V38.2503H40.9444C41.0416 38.2503 41.1388 38.3475 41.1388 38.4447V39.8056C41.1388 39.9028 41.0416 40 40.9444 40H0.944411C0.847205 40 0.75 39.9028 0.75 39.8056V38.4447C0.75 38.3475 0.847205 38.2503 0.944411 38.2503H2.25668V35.3341H6.67953V16.3305H3.86057C3.71476 16.3305 3.66616 16.2819 3.66616 16.1847V15.2126C3.66616 15.0668 19.219 1.60389 21.0173 0C22.8642 1.60389 38.4171 15.0668 38.4171 15.2126V16.1847C38.4171 16.2819 38.3199 16.3305 38.2227 16.3305H35.1607ZM19.705 8.79708C19.9967 10.158 22.1352 9.96355 22.1838 8.9915C22.1838 8.40826 21.4547 8.31106 21.0659 8.16525C20.1425 7.92224 18.976 7.67922 19.0246 6.51276C19.0732 5.68651 19.7536 5.20049 20.5799 5.10328V4.32564H21.3089V5.10328C22.0866 5.24909 22.8156 5.68651 22.9128 6.60996H22.0866C21.795 5.4921 19.8995 5.63791 19.8508 6.46416C19.8508 6.99879 20.6771 7.14459 21.0659 7.2418C21.9408 7.53341 23.1072 7.72783 23.0586 8.89429C23.01 9.81774 22.1838 10.3524 21.3089 10.4496V11.2272H20.5799V10.4496C19.7536 10.3038 18.976 9.81774 18.8302 8.79708H19.705ZM8.62363 13.3657H33.411V14.2892H8.62363V13.3657ZM11.1996 31.7375V21.1908H10.8594C10.6163 21.1908 10.4219 20.9964 10.4219 20.7047V18.469C10.4219 18.226 10.6163 18.0316 10.8594 18.0316H14.7476C14.9906 18.0316 15.185 18.226 15.185 18.469V20.7047C15.185 20.9964 14.9906 21.1908 14.7476 21.1908H14.4074V31.7375H14.7476C14.9906 31.7375 15.185 31.932 15.185 32.2236V34.4593C15.185 34.7023 14.9906 34.8967 14.7476 34.8967H10.8594C10.6163 34.8967 10.4219 34.7023 10.4219 34.4593V32.2236C10.4219 31.932 10.6163 31.7375 10.8594 31.7375H11.1996ZM19.3648 31.7375V21.1908H19.0246C18.733 21.1908 18.5386 20.9964 18.5386 20.7047V18.469C18.5386 18.226 18.733 18.0316 19.0246 18.0316H22.8642C23.1072 18.0316 23.3502 18.226 23.3502 18.469V20.7047C23.3502 20.9964 23.1072 21.1908 22.8642 21.1908H22.524V31.7375H22.8642C23.1072 31.7375 23.3502 31.932 23.3502 32.2236V34.4593C23.3502 34.7023 23.1072 34.8967 22.8642 34.8967H19.0246C18.733 34.8967 18.5386 34.7023 18.5386 34.4593V32.2236C18.5386 31.932 18.733 31.7375 19.0246 31.7375H19.3648ZM27.4815 31.7375V21.1908H27.1413C26.8982 21.1908 26.6552 20.9964 26.6552 20.7047V18.469C26.6552 18.226 26.8982 18.0316 27.1413 18.0316H31.0295C31.2725 18.0316 31.4669 18.226 31.4669 18.469V20.7047C31.4669 20.9964 31.2725 21.1908 31.0295 21.1908H30.6406V31.7375H31.0295C31.2725 31.7375 31.4669 31.932 31.4669 32.2236V34.4593C31.4669 34.7023 31.2725 34.8967 31.0295 34.8967H27.1413C26.8982 34.8967 26.6552 34.7023 26.6552 34.4593V32.2236C26.6552 31.932 26.8982 31.7375 27.1413 31.7375H27.4815Z" fill="#303833"/>
</svg>
