<svg width="49" height="48" viewBox="0 0 49 48" fill="none" xmlns="http://www.w3.org/2000/svg">
<path d="M44.6873 25.1296C43.6686 26.5732 42.285 27.788 41.043 29.0354C38.9458 31.1272 36.854 33.2245 34.7622 35.3163C32.5778 37.5007 30.3933 39.6851 28.2089 41.8695C27.2012 42.8772 26.1989 43.8796 25.1911 44.8873C24.8806 45.1978 24.3467 45.1978 24.0362 44.8873C24.0036 44.8547 23.9763 44.8274 23.9436 44.7947C23.2627 44.1138 22.5763 43.4274 21.8954 42.7465L18.0114 38.8625C16.4698 37.3209 14.9336 35.7847 13.392 34.2431C11.9757 32.8268 10.5594 31.4105 9.14306 29.9942C8.69638 29.5475 8.24969 29.1008 7.803 28.6541H14.4924C14.8574 28.6541 15.2659 28.4525 15.4348 28.1148C15.936 27.0961 16.4371 26.072 16.9383 25.0534C17.5702 23.7732 18.2021 22.4876 18.8285 21.2075C19.0246 21.7141 19.2262 22.2207 19.4223 22.7273C20.2285 24.8028 21.0402 26.8837 21.8464 28.9592C22.0316 29.4385 22.2168 29.9179 22.4075 30.3973C22.5709 30.8113 22.8487 31.1163 23.3117 31.1762C23.7094 31.2307 24.216 31.0455 24.3958 30.6533C25.2674 28.7794 26.1389 26.9109 27.0051 25.037C27.3864 25.8541 27.7677 26.6658 28.1545 27.4829C28.2525 27.6899 28.3506 27.9024 28.4486 28.1094C28.6066 28.4471 29.0315 28.6487 29.391 28.6487H32.8501C33.4221 28.6487 33.9668 28.1475 33.9396 27.5592C33.9124 26.9709 33.4602 26.4697 32.8501 26.4697H30.0774C29.4618 25.1623 28.8517 23.8549 28.2362 22.553C28.1381 22.346 28.0401 22.1336 27.942 21.9266C27.6097 21.2184 26.395 21.213 26.0627 21.9266C25.2238 23.7297 24.3849 25.5382 23.546 27.3413C23.3553 26.8565 23.1701 26.3716 22.9794 25.8868C22.1732 23.8114 21.3616 21.7305 20.5554 19.655C20.3701 19.1756 20.1795 18.6963 19.9943 18.2169C19.8309 17.8029 19.553 17.4978 19.09 17.4379C18.6869 17.3834 18.1966 17.5687 18.006 17.9554C17.5048 18.9741 17.0037 19.9982 16.5025 21.0169C15.7017 22.6402 14.9064 24.2689 14.1056 25.8923C14.013 26.0829 13.915 26.279 13.8224 26.4697H5.66762C5.66218 26.4697 5.65673 26.4697 5.65673 26.4697C4.79604 25.5273 4.0443 24.5086 3.51046 23.3211C2.19763 20.4013 2.07234 17.0021 3.29256 14.0278C4.65441 10.694 7.4925 8.12287 10.9734 7.15323C14.5959 6.14547 18.5235 6.96258 21.4651 9.28861C22.2114 9.87693 22.865 10.5851 23.5405 11.2551C23.9001 11.6147 24.2596 11.9742 24.6137 12.3283L26.1553 10.7866C26.9996 9.9423 27.8549 9.13064 28.8735 8.49329C30.3716 7.55089 32.0711 6.99526 33.8198 6.79371C37.317 6.3906 40.8796 7.66529 43.369 10.1384C43.8157 10.5905 44.2243 11.0808 44.6002 11.5929C47.46 15.5368 47.4873 21.1585 44.6873 25.1296Z" fill="#303833"/>
</svg>
