<svg width="41" height="40" viewBox="0 0 41 40" fill="none" xmlns="http://www.w3.org/2000/svg">
<path fill-rule="evenodd" clip-rule="evenodd" d="M22.129 34.4828H19.3704V38.6207C19.3704 39.3828 19.9876 40 20.7497 40C21.5118 40 22.129 39.3828 22.129 38.6207V34.4828ZM17.3012 34.4828H14.5426V38.6207C14.5426 39.3828 15.1598 40 15.9219 40C16.684 40 17.3012 39.3828 17.3012 38.6207V34.4828ZM26.9563 34.4828H24.1977V38.6207C24.1977 39.3828 24.8149 40 25.577 40C26.3391 40 26.9563 39.3828 26.9563 38.6207V34.4828ZM34.5427 6.89673C34.5427 6.5157 34.2341 6.20708 33.853 6.20708H7.64629C7.26526 6.20708 6.95664 6.5157 6.95664 6.89673V33.1035C6.95664 33.4845 7.26526 33.7931 7.64629 33.7931H33.853C34.2341 33.7931 34.5427 33.4845 34.5427 33.1035V6.89673ZM6.26721 23.4484H2.1293C1.36722 23.4484 0.75 24.0656 0.75 24.8277C0.75 25.5898 1.36722 26.207 2.1293 26.207H6.26721V23.4484ZM35.2326 23.4484V26.207H39.3705C40.1326 26.207 40.7498 25.5898 40.7498 24.8277C40.7498 24.0656 40.1326 23.4484 39.3705 23.4484H35.2326ZM13.8532 15.1726V24.8277C13.8532 25.2087 14.1618 25.5173 14.5428 25.5173C14.9238 25.5173 15.2325 25.2087 15.2325 24.8277V15.1726C15.2325 14.7915 14.9238 14.4829 14.5428 14.4829C14.1618 14.4829 13.8532 14.7915 13.8532 15.1726ZM20.7497 18.6208C18.8462 18.6208 17.3014 20.1656 17.3014 22.0691C17.3014 23.9725 18.8462 25.5173 20.7497 25.5173C22.6531 25.5173 24.1979 23.9725 24.1979 22.0691C24.1979 20.1656 22.6531 18.6208 20.7497 18.6208ZM27.6462 15.8622H31.0944C31.4755 15.8622 31.7841 15.5536 31.7841 15.1726C31.7841 14.7915 31.4755 14.4829 31.0944 14.4829H22.8186C22.4376 14.4829 22.129 14.7915 22.129 15.1726C22.129 15.5536 22.4376 15.8622 22.8186 15.8622H26.2669V24.8274C26.2669 25.2085 26.5755 25.5171 26.9565 25.5171C27.3376 25.5171 27.6462 25.2085 27.6462 24.8274V15.8622ZM20.7497 20.0001C21.891 20.0001 22.8186 20.9277 22.8186 22.0691C22.8186 23.2104 21.891 24.138 20.7497 24.138C19.6083 24.138 18.6807 23.2104 18.6807 22.0691C18.6807 20.9277 19.6083 20.0001 20.7497 20.0001ZM6.26721 18.6208H2.1293C1.36722 18.6208 0.75 19.238 0.75 20.0001C0.75 20.7622 1.36722 21.3794 2.1293 21.3794H6.26721V18.6208ZM35.2326 18.6208V21.3794H39.3705C40.1326 21.3794 40.7498 20.7622 40.7498 20.0001C40.7498 19.238 40.1326 18.6208 39.3705 18.6208H35.2326ZM6.26721 13.793H2.1293C1.36722 13.793 0.75 14.4102 0.75 15.1723C0.75 15.9344 1.36722 16.5516 2.1293 16.5516H6.26721V13.793ZM35.2326 13.793V16.5516H39.3705C40.1326 16.5516 40.7498 15.9344 40.7498 15.1723C40.7498 14.4102 40.1326 13.793 39.3705 13.793H35.2326ZM14.543 5.51721H17.3016V1.3793C17.3016 0.617221 16.6844 0 15.9223 0C15.1603 0 14.543 0.617221 14.543 1.3793V5.51721ZM19.3708 5.51721H22.1294V1.3793C22.1294 0.617221 21.5122 0 20.7501 0C19.988 0 19.3708 0.617221 19.3708 1.3793V5.51721ZM24.1986 5.51721H26.9572V1.3793C26.9572 0.617221 26.34 0 25.5779 0C24.8158 0 24.1986 0.617221 24.1986 1.3793V5.51721Z" fill="#303833"/>
</svg>
