<svg width="20" height="21" viewBox="0 0 20 21" fill="none" xmlns="http://www.w3.org/2000/svg">
<path d="M4.08301 16.2094C0.833008 12.9594 0.833008 7.62604 4.08301 4.37604" stroke="#0A1A10" stroke-width="1.66667" stroke-linecap="round" stroke-linejoin="round"/>
<path d="M6.5 13.7927C4.58333 11.8761 4.58333 8.70941 6.5 6.70941" stroke="#0A1A10" stroke-width="1.66667" stroke-linecap="round" stroke-linejoin="round"/>
<path d="M9.99967 11.9594C10.9201 11.9594 11.6663 11.2132 11.6663 10.2927C11.6663 9.37223 10.9201 8.62604 9.99967 8.62604C9.0792 8.62604 8.33301 9.37223 8.33301 10.2927C8.33301 11.2132 9.0792 11.9594 9.99967 11.9594Z" stroke="#0A1A10" stroke-width="1.66667" stroke-linecap="round" stroke-linejoin="round"/>
<path d="M13.5 6.79272C15.4167 8.70939 15.4167 11.8761 13.5 13.8761" stroke="#0A1A10" stroke-width="1.66667" stroke-linecap="round" stroke-linejoin="round"/>
<path d="M15.917 4.37604C19.167 7.62604 19.167 12.876 15.917 16.126" stroke="#0A1A10" stroke-width="1.66667" stroke-linecap="round" stroke-linejoin="round"/>
</svg>
