<svg width="22" height="21" viewBox="0 0 22 21" fill="none" xmlns="http://www.w3.org/2000/svg">
<path d="M9.30945 3.51233C9.44125 3.16483 9.96442 3.16483 10.0962 3.51233C10.6536 4.98211 11.7251 7.53814 12.7967 8.60964C13.871 9.68397 16.2984 10.7583 17.6813 11.3144C18.019 11.4502 18.019 11.9568 17.6813 12.0927C16.2982 12.6488 13.871 13.7231 12.7967 14.7973C11.7251 15.8688 10.6536 18.4249 10.0962 19.8947C9.96442 20.2421 9.44125 20.2421 9.30945 19.8947C8.7521 18.4249 7.68056 15.8688 6.60903 14.7973C5.53748 13.7257 2.98141 12.6543 1.51161 12.097C1.1641 11.9652 1.1641 11.442 1.5116 11.3102C2.9814 10.7527 5.53748 9.68118 6.60903 8.60964C7.68056 7.53814 8.7521 4.98211 9.30945 3.51233Z" fill="#0A1A10"/>
<path d="M17.0262 0.412683C17.1688 0.0694701 17.705 0.0694701 17.8476 0.412683C18.1437 1.12579 18.5638 2.00212 18.9838 2.42218C19.4064 2.84483 20.2479 3.26749 20.9244 3.56396C21.2577 3.71006 21.2577 4.22822 20.9244 4.37431C20.2479 4.67074 19.4064 5.09337 18.9838 5.51604C18.5638 5.93608 18.1437 6.81241 17.8476 7.52552C17.705 7.86873 17.1688 7.86873 17.0262 7.52552C16.7301 6.81241 16.31 5.93608 15.89 5.51604C15.4698 5.09597 14.5935 4.67592 13.8804 4.37977C13.5373 4.23724 13.5373 3.70105 13.8804 3.55848C14.5935 3.26231 15.4698 2.84223 15.89 2.42218C16.31 2.00212 16.7301 1.12579 17.0262 0.412683Z" fill="#0A1A10"/>
<path d="M2.0557 2.46798C2.21128 2.13046 2.75747 2.13046 2.91306 2.46798C3.0897 2.85117 3.30269 3.24009 3.51567 3.45307C3.73148 3.6689 4.11114 3.88471 4.47966 4.06273C4.8074 4.22105 4.8074 4.74773 4.47966 4.90604C4.11112 5.08404 3.73148 5.29985 3.51567 5.51566C3.30269 5.72864 3.0897 6.11757 2.91306 6.50075C2.75747 6.83827 2.21128 6.83827 2.0557 6.50075C1.87904 6.11757 1.66606 5.72864 1.45308 5.51566C1.2401 5.30268 0.851177 5.0897 0.467992 4.91306C0.130471 4.75747 0.130456 4.21129 0.467976 4.0557C0.851162 3.87905 1.2401 3.66605 1.45308 3.45307C1.66606 3.24009 1.87904 2.85117 2.0557 2.46798Z" fill="#0A1A10"/>
</svg>
