<svg width="41" height="40" viewBox="0 0 41 40" fill="none" xmlns="http://www.w3.org/2000/svg">
<path d="M38.2514 12.4997C38.9148 12.4997 39.55 12.2372 40.0187 11.7684C40.4874 11.2996 40.75 10.6621 40.75 9.99883V2.49855C40.75 1.83523 40.4875 1.20004 40.0187 0.731307C39.5499 0.262569 38.9148 0 38.2514 0H30.7512C29.3706 0 28.2503 1.11802 28.2503 2.49855V4.99944H24.2704C23.7478 3.50173 22.3368 2.49855 20.75 2.49855C19.1632 2.49855 17.7522 3.50173 17.2295 4.99944H13.2497V2.49855C13.2497 1.83523 12.9872 1.20004 12.5184 0.731307C12.0496 0.262569 11.4121 0 10.7488 0H3.24855C1.86802 0 0.75 1.11802 0.75 2.49855V9.99883C0.75 10.6622 1.01251 11.2997 1.48131 11.7684C1.9501 12.2372 2.58523 12.4997 3.24855 12.4997H5.74944V16.4795C4.25173 17.0022 3.24855 18.4132 3.24855 20C3.24855 21.5868 4.25173 22.9978 5.74944 23.5204V27.5003H3.24855C1.86802 27.5003 0.75 28.6206 0.75 30.0012V37.5014C0.75 38.1648 1.01251 38.8 1.48131 39.2687C1.9501 39.7374 2.58523 40 3.24855 40H10.7488C11.4122 40 12.0497 39.7375 12.5184 39.2687C12.9872 38.7999 13.2497 38.1648 13.2497 37.5014V35.0006H17.2295C17.7522 36.4983 19.1632 37.5014 20.75 37.5014C22.3368 37.5014 23.7478 36.4983 24.2704 35.0006H28.2503V37.5014C28.2503 38.1648 28.5128 38.8 28.9816 39.2687C29.4504 39.7374 30.0879 40 30.7512 40H38.2514C38.9148 40 39.55 39.7375 40.0187 39.2687C40.4874 38.7999 40.75 38.1648 40.75 37.5014V30.0012C40.75 29.3378 40.4875 28.7003 40.0187 28.2316C39.5499 27.7628 38.9148 27.5003 38.2514 27.5003H35.7506V23.5204C37.2483 22.9978 38.2514 21.5868 38.2514 20C38.2514 18.4132 37.2483 17.0022 35.7506 16.4795V12.4997H38.2514ZM20.75 4.99944C21.2563 4.99944 21.711 5.30414 21.9055 5.77059C22.0977 6.23936 21.9922 6.77611 21.6336 7.13234C21.2774 7.49095 20.7383 7.59876 20.2719 7.40423C19.8055 7.21203 19.5007 6.755 19.5007 6.2487C19.5007 5.55964 20.0586 4.99944 20.75 4.99944ZM6.99869 18.7508C7.50496 18.7508 7.96203 19.0555 8.15421 19.5219C8.34875 19.9883 8.24093 20.5274 7.88233 20.8837C7.52607 21.2423 6.98932 21.3477 6.52058 21.1555C6.05416 20.961 5.74943 20.5063 5.74943 20C5.74943 19.3086 6.30962 18.7508 6.99869 18.7508ZM20.75 35.0006C20.2437 35.0006 19.789 34.6959 19.5945 34.2294C19.4023 33.7606 19.5078 33.2239 19.8664 32.8677C20.2226 32.509 20.7617 32.4012 21.2281 32.5958C21.6945 32.788 21.9993 33.245 21.9993 33.7513C21.9993 34.0818 21.868 34.4005 21.6336 34.6349C21.3992 34.8694 21.0805 35.0006 20.75 35.0006ZM34.5013 21.2492C33.995 21.2492 33.538 20.9445 33.3458 20.4781C33.1512 20.0117 33.2591 19.4726 33.6177 19.1163C33.9739 18.7577 34.5107 18.6523 34.9794 18.8445C35.4458 19.039 35.7506 19.4937 35.7506 20C35.7506 20.3305 35.6193 20.6492 35.3849 20.8836C35.1505 21.1181 34.8318 21.2492 34.5013 21.2492ZM33.2521 16.4795H33.2497C31.752 17.0022 30.7488 18.4132 30.7488 20C30.7488 21.5868 31.752 22.9978 33.2497 23.5204V27.5003H30.7512C29.3706 27.5003 28.2503 28.6206 28.2503 30.0012V32.5021L24.2704 32.4997C23.7478 31.002 22.3368 29.9988 20.75 29.9988C19.1632 29.9988 17.7522 31.002 17.2295 32.4997H13.2497V30.0012C13.2497 29.3378 12.9872 28.7003 12.5184 28.2316C12.0496 27.7628 11.4121 27.5003 10.7488 27.5003H8.25027V23.5204C9.74799 22.9978 10.7512 21.5868 10.7512 20C10.7512 18.4132 9.74799 17.0022 8.25027 16.4795V12.4997H10.7512H10.7488C11.4121 12.4997 12.0497 12.2372 12.5184 11.7684C12.9871 11.2996 13.2497 10.6621 13.2497 9.99883V7.50027H17.2295C17.7522 8.99799 19.1632 10.0012 20.75 10.0012C22.3368 10.0012 23.7478 8.99799 24.2704 7.50027H28.2503V10.0012V9.99882C28.2503 10.6621 28.5128 11.2997 28.9816 11.7684C29.4504 12.2371 30.0879 12.4997 30.7512 12.4997H33.2521L33.2521 16.4795Z" fill="#303833"/>
</svg>
