<svg width="1920" height="1405" viewBox="0 0 1920 1405" fill="none" xmlns="http://www.w3.org/2000/svg">
<rect width="1920" height="1405" fill="white"/>
<g clip-path="url(#clip0_13601_1519)">
<g opacity="0.5">
<line opacity="0.4" y1="-0.526075" x2="1116.73" y2="-0.526075" transform="matrix(-4.37114e-08 -1 -1 4.37114e-08 214.066 1023.94)" stroke="url(#paint0_linear_13601_1519)" stroke-opacity="0.5" stroke-width="1.05215"/>
<line opacity="0.4" y1="-0.526075" x2="1116.73" y2="-0.526075" transform="matrix(-4.37114e-08 -1 -1 4.37114e-08 272.583 1023.94)" stroke="url(#paint1_linear_13601_1519)" stroke-opacity="0.5" stroke-width="1.05215"/>
<line opacity="0.4" y1="-0.526075" x2="1116.73" y2="-0.526075" transform="matrix(-4.37114e-08 -1 -1 4.37114e-08 331.1 1023.94)" stroke="url(#paint2_linear_13601_1519)" stroke-opacity="0.5" stroke-width="1.05215"/>
<line opacity="0.4" y1="-0.526075" x2="1116.73" y2="-0.526075" transform="matrix(-4.37114e-08 -1 -1 4.37114e-08 389.617 1023.94)" stroke="url(#paint3_linear_13601_1519)" stroke-opacity="0.5" stroke-width="1.05215"/>
<line opacity="0.6" y1="-0.526075" x2="1116.73" y2="-0.526075" transform="matrix(-4.37114e-08 -1 -1 4.37114e-08 448.134 1023.94)" stroke="url(#paint4_linear_13601_1519)" stroke-opacity="0.5" stroke-width="1.05215"/>
<line opacity="0.7" y1="-0.526075" x2="1116.73" y2="-0.526075" transform="matrix(-4.37114e-08 -1 -1 4.37114e-08 506.65 1023.94)" stroke="url(#paint5_linear_13601_1519)" stroke-opacity="0.5" stroke-width="1.05215"/>
<line opacity="0.7" y1="-0.526075" x2="1116.73" y2="-0.526075" transform="matrix(-4.37114e-08 -1 -1 4.37114e-08 565.167 1023.94)" stroke="url(#paint6_linear_13601_1519)" stroke-opacity="0.5" stroke-width="1.05215"/>
<line opacity="0.7" y1="-0.526075" x2="1116.73" y2="-0.526075" transform="matrix(-4.37114e-08 -1 -1 4.37114e-08 623.685 1023.94)" stroke="url(#paint7_linear_13601_1519)" stroke-opacity="0.5" stroke-width="1.05215"/>
<line y1="-0.526075" x2="1116.73" y2="-0.526075" transform="matrix(-4.37114e-08 -1 -1 4.37114e-08 682.201 1023.94)" stroke="url(#paint8_linear_13601_1519)" stroke-opacity="0.5" stroke-width="1.05215"/>
<line y1="-0.526075" x2="1116.73" y2="-0.526075" transform="matrix(-4.37114e-08 -1 -1 4.37114e-08 740.718 1023.94)" stroke="url(#paint9_linear_13601_1519)" stroke-opacity="0.5" stroke-width="1.05215"/>
<line y1="-0.526075" x2="1116.73" y2="-0.526075" transform="matrix(-4.37114e-08 -1 -1 4.37114e-08 799.234 1023.94)" stroke="url(#paint10_linear_13601_1519)" stroke-opacity="0.5" stroke-width="1.05215"/>
<line y1="-0.526075" x2="1116.73" y2="-0.526075" transform="matrix(-4.37114e-08 -1 -1 4.37114e-08 857.752 1023.94)" stroke="url(#paint11_linear_13601_1519)" stroke-opacity="0.5" stroke-width="1.05215"/>
<line y1="-0.526075" x2="1116.73" y2="-0.526075" transform="matrix(-4.37114e-08 -1 -1 4.37114e-08 916.269 1023.94)" stroke="url(#paint12_linear_13601_1519)" stroke-opacity="0.5" stroke-width="1.05215"/>
<line y1="-0.526075" x2="1116.73" y2="-0.526075" transform="matrix(-4.37114e-08 -1 -1 4.37114e-08 974.785 1023.94)" stroke="url(#paint13_linear_13601_1519)" stroke-opacity="0.5" stroke-width="1.05215"/>
<line y1="-0.526075" x2="1116.73" y2="-0.526075" transform="matrix(-4.37114e-08 -1 -1 4.37114e-08 1033.3 1023.94)" stroke="url(#paint14_linear_13601_1519)" stroke-opacity="0.5" stroke-width="1.05215"/>
<line y1="-0.526075" x2="1116.73" y2="-0.526075" transform="matrix(-4.37114e-08 -1 -1 4.37114e-08 1091.82 1023.94)" stroke="url(#paint15_linear_13601_1519)" stroke-opacity="0.5" stroke-width="1.05215"/>
<line opacity="0.6" y1="-0.526075" x2="1116.73" y2="-0.526075" transform="matrix(-4.37114e-08 -1 -1 4.37114e-08 1150.34 1023.94)" stroke="url(#paint16_linear_13601_1519)" stroke-opacity="0.5" stroke-width="1.05215"/>
<line opacity="0.7" y1="-0.526075" x2="1116.73" y2="-0.526075" transform="matrix(-4.37114e-08 -1 -1 4.37114e-08 1208.85 1023.94)" stroke="url(#paint17_linear_13601_1519)" stroke-opacity="0.5" stroke-width="1.05215"/>
<line opacity="0.7" y1="-0.526075" x2="1116.73" y2="-0.526075" transform="matrix(-4.37114e-08 -1 -1 4.37114e-08 1267.37 1023.94)" stroke="url(#paint18_linear_13601_1519)" stroke-opacity="0.5" stroke-width="1.05215"/>
<line opacity="0.6" y1="-0.526075" x2="1116.73" y2="-0.526075" transform="matrix(-4.37114e-08 -1 -1 4.37114e-08 1325.89 1023.94)" stroke="url(#paint19_linear_13601_1519)" stroke-opacity="0.5" stroke-width="1.05215"/>
<line opacity="0.5" y1="-0.526075" x2="1116.73" y2="-0.526075" transform="matrix(-4.37114e-08 -1 -1 4.37114e-08 1384.4 1023.94)" stroke="url(#paint20_linear_13601_1519)" stroke-opacity="0.5" stroke-width="1.05215"/>
<line opacity="0.4" y1="-0.526075" x2="1116.73" y2="-0.526075" transform="matrix(-4.37114e-08 -1 -1 4.37114e-08 1442.92 1023.94)" stroke="url(#paint21_linear_13601_1519)" stroke-opacity="0.5" stroke-width="1.05215"/>
<line opacity="0.4" y1="-0.526075" x2="1116.73" y2="-0.526075" transform="matrix(-4.37114e-08 -1 -1 4.37114e-08 1501.44 1023.94)" stroke="url(#paint22_linear_13601_1519)" stroke-opacity="0.5" stroke-width="1.05215"/>
<line opacity="0.3" y1="-0.526075" x2="1116.73" y2="-0.526075" transform="matrix(-4.37114e-08 -1 -1 4.37114e-08 1559.95 1023.94)" stroke="url(#paint23_linear_13601_1519)" stroke-opacity="0.5" stroke-width="1.05215"/>
<line opacity="0.3" y1="-0.526075" x2="1116.73" y2="-0.526075" transform="matrix(-4.37114e-08 -1 -1 4.37114e-08 1618.47 1023.94)" stroke="url(#paint24_linear_13601_1519)" stroke-opacity="0.5" stroke-width="1.05215"/>
<line y1="-0.526075" x2="1116.73" y2="-0.526075" transform="matrix(-4.37114e-08 -1 -1 4.37114e-08 1676.99 1023.94)" stroke="url(#paint25_linear_13601_1519)" stroke-opacity="0.1" stroke-width="1.05215"/>
<line y1="-0.526075" x2="1116.73" y2="-0.526075" transform="matrix(-4.37114e-08 -1 -1 4.37114e-08 1735.5 1023.94)" stroke="url(#paint26_linear_13601_1519)" stroke-opacity="0.1" stroke-width="1.05215"/>
<line y1="-0.572561" x2="1725.87" y2="-0.572561" transform="matrix(-1 8.47986e-08 9.01281e-08 1 1822.94 509.39)" stroke="url(#paint27_linear_13601_1519)" stroke-opacity="0.1" stroke-width="1.14512"/>
<line y1="-0.572561" x2="1725.87" y2="-0.572561" transform="matrix(-1 8.47986e-08 9.01281e-08 1 1822.94 445.702)" stroke="url(#paint28_linear_13601_1519)" stroke-opacity="0.1" stroke-width="1.14512"/>
<line y1="-0.572561" x2="1725.87" y2="-0.572561" transform="matrix(-1 8.47986e-08 9.01281e-08 1 1822.94 382.015)" stroke="url(#paint29_linear_13601_1519)" stroke-opacity="0.1" stroke-width="1.14512"/>
<line y1="-0.572561" x2="1725.87" y2="-0.572561" transform="matrix(-1 8.47986e-08 9.01281e-08 1 1822.94 318.327)" stroke="url(#paint30_linear_13601_1519)" stroke-opacity="0.1" stroke-width="1.14512"/>
<line x1="1822.94" y1="255.212" x2="97.0645" y2="255.212" stroke="url(#paint31_linear_13601_1519)" stroke-opacity="0.1" stroke-width="1.14512"/>
<line y1="-0.572561" x2="1725.87" y2="-0.572561" transform="matrix(-1 8.74228e-08 8.74228e-08 1 1822.94 190.952)" stroke="url(#paint32_linear_13601_1519)" stroke-opacity="0.1" stroke-width="1.14512"/>
<line y1="-0.572561" x2="1725.87" y2="-0.572561" transform="matrix(-1 8.74228e-08 8.74228e-08 1 1822.94 127.265)" stroke="url(#paint33_linear_13601_1519)" stroke-opacity="0.1" stroke-width="1.14512"/>
<line y1="-0.572561" x2="1725.87" y2="-0.572561" transform="matrix(-1 8.74228e-08 8.74228e-08 1 1822.94 63.5771)" stroke="url(#paint34_linear_13601_1519)" stroke-opacity="0.1" stroke-width="1.14512"/>
</g>
<rect x="1502.6" y="125.936" width="57.4619" height="64.8154" fill="#EBF0ED"/>
<rect x="1561.12" y="190.751" width="57.4619" height="64.8154" fill="#EBF0ED"/>
<rect x="1619.63" y="125.936" width="57.4619" height="64.8154" fill="#EBF0ED"/>
<rect x="332.264" y="126.338" width="57.4619" height="64.8154" fill="#EBF0ED"/>
<rect x="390.78" y="191.153" width="57.4619" height="64.8154" fill="#EBF0ED"/>
<rect x="449.298" y="126.338" width="57.4619" height="64.8154" fill="#EBF0ED"/>
</g>
<defs>
<linearGradient id="paint0_linear_13601_1519" x1="1116.73" y1="-0.000128952" x2="214.713" y2="-5.17729e-05" gradientUnits="userSpaceOnUse">
<stop stop-color="#B6DDFF" stop-opacity="0"/>
<stop offset="0.424924" stop-opacity="0.36"/>
<stop offset="0.561017" stop-opacity="0.3"/>
<stop offset="1" stop-color="#B6DDFF" stop-opacity="0"/>
</linearGradient>
<linearGradient id="paint1_linear_13601_1519" x1="1116.73" y1="-0.000128952" x2="214.713" y2="-5.17729e-05" gradientUnits="userSpaceOnUse">
<stop stop-color="#B6DDFF" stop-opacity="0"/>
<stop offset="0.424924" stop-opacity="0.36"/>
<stop offset="0.561017" stop-opacity="0.3"/>
<stop offset="1" stop-color="#B6DDFF" stop-opacity="0"/>
</linearGradient>
<linearGradient id="paint2_linear_13601_1519" x1="1116.73" y1="-0.000128952" x2="214.713" y2="-5.17729e-05" gradientUnits="userSpaceOnUse">
<stop stop-color="#B6DDFF" stop-opacity="0"/>
<stop offset="0.424924" stop-opacity="0.36"/>
<stop offset="0.561017" stop-opacity="0.3"/>
<stop offset="1" stop-color="#B6DDFF" stop-opacity="0"/>
</linearGradient>
<linearGradient id="paint3_linear_13601_1519" x1="1116.73" y1="-0.000128952" x2="214.713" y2="-5.17729e-05" gradientUnits="userSpaceOnUse">
<stop stop-color="#B6DDFF" stop-opacity="0"/>
<stop offset="0.424924" stop-opacity="0.36"/>
<stop offset="0.561017" stop-opacity="0.3"/>
<stop offset="1" stop-color="#B6DDFF" stop-opacity="0"/>
</linearGradient>
<linearGradient id="paint4_linear_13601_1519" x1="1116.73" y1="-0.000128952" x2="214.713" y2="-5.17729e-05" gradientUnits="userSpaceOnUse">
<stop stop-color="#B6DDFF" stop-opacity="0"/>
<stop offset="0.424924" stop-opacity="0.36"/>
<stop offset="0.561017" stop-opacity="0.3"/>
<stop offset="1" stop-color="#B6DDFF" stop-opacity="0"/>
</linearGradient>
<linearGradient id="paint5_linear_13601_1519" x1="1116.73" y1="-0.000128952" x2="214.713" y2="-5.17729e-05" gradientUnits="userSpaceOnUse">
<stop stop-color="#B6DDFF" stop-opacity="0"/>
<stop offset="0.424924" stop-opacity="0.36"/>
<stop offset="0.561017" stop-opacity="0.3"/>
<stop offset="1" stop-color="#B6DDFF" stop-opacity="0"/>
</linearGradient>
<linearGradient id="paint6_linear_13601_1519" x1="1116.73" y1="-0.000128952" x2="214.713" y2="-5.17729e-05" gradientUnits="userSpaceOnUse">
<stop stop-color="#B6DDFF" stop-opacity="0"/>
<stop offset="0.424924" stop-opacity="0.36"/>
<stop offset="0.561017" stop-opacity="0.3"/>
<stop offset="1" stop-color="#B6DDFF" stop-opacity="0"/>
</linearGradient>
<linearGradient id="paint7_linear_13601_1519" x1="1116.73" y1="-0.000128952" x2="214.713" y2="-5.17729e-05" gradientUnits="userSpaceOnUse">
<stop stop-color="#B6DDFF" stop-opacity="0"/>
<stop offset="0.424924" stop-opacity="0.36"/>
<stop offset="0.561017" stop-opacity="0.3"/>
<stop offset="1" stop-color="#B6DDFF" stop-opacity="0"/>
</linearGradient>
<linearGradient id="paint8_linear_13601_1519" x1="1116.73" y1="-0.000128952" x2="214.713" y2="-5.17729e-05" gradientUnits="userSpaceOnUse">
<stop stop-color="#B6DDFF" stop-opacity="0"/>
<stop offset="0.424924" stop-opacity="0.36"/>
<stop offset="0.561017" stop-opacity="0.3"/>
<stop offset="1" stop-color="#B6DDFF" stop-opacity="0"/>
</linearGradient>
<linearGradient id="paint9_linear_13601_1519" x1="1116.73" y1="-0.000128952" x2="214.713" y2="-5.17729e-05" gradientUnits="userSpaceOnUse">
<stop stop-color="#B6DDFF" stop-opacity="0"/>
<stop offset="0.424924" stop-opacity="0.36"/>
<stop offset="0.561017" stop-opacity="0.3"/>
<stop offset="1" stop-color="#B6DDFF" stop-opacity="0"/>
</linearGradient>
<linearGradient id="paint10_linear_13601_1519" x1="1116.73" y1="-0.000128952" x2="214.713" y2="-5.17729e-05" gradientUnits="userSpaceOnUse">
<stop stop-color="#B6DDFF" stop-opacity="0"/>
<stop offset="0.424924" stop-opacity="0.36"/>
<stop offset="0.561017" stop-opacity="0.3"/>
<stop offset="1" stop-color="#B6DDFF" stop-opacity="0"/>
</linearGradient>
<linearGradient id="paint11_linear_13601_1519" x1="1116.73" y1="-0.000128952" x2="214.713" y2="-5.17729e-05" gradientUnits="userSpaceOnUse">
<stop stop-color="#B6DDFF" stop-opacity="0"/>
<stop offset="0.424924" stop-opacity="0.36"/>
<stop offset="0.561017" stop-opacity="0.3"/>
<stop offset="1" stop-color="#B6DDFF" stop-opacity="0"/>
</linearGradient>
<linearGradient id="paint12_linear_13601_1519" x1="1116.73" y1="-0.000128952" x2="214.713" y2="-5.17729e-05" gradientUnits="userSpaceOnUse">
<stop stop-color="#B6DDFF" stop-opacity="0"/>
<stop offset="0.424924" stop-opacity="0.36"/>
<stop offset="0.561017" stop-opacity="0.3"/>
<stop offset="1" stop-color="#B6DDFF" stop-opacity="0"/>
</linearGradient>
<linearGradient id="paint13_linear_13601_1519" x1="1116.73" y1="-0.000128952" x2="214.713" y2="-5.17729e-05" gradientUnits="userSpaceOnUse">
<stop stop-color="#B6DDFF" stop-opacity="0"/>
<stop offset="0.424924" stop-opacity="0.36"/>
<stop offset="0.561017" stop-opacity="0.3"/>
<stop offset="1" stop-color="#B6DDFF" stop-opacity="0"/>
</linearGradient>
<linearGradient id="paint14_linear_13601_1519" x1="1116.73" y1="-0.000128952" x2="214.713" y2="-5.17729e-05" gradientUnits="userSpaceOnUse">
<stop stop-color="#B6DDFF" stop-opacity="0"/>
<stop offset="0.424924" stop-opacity="0.36"/>
<stop offset="0.561017" stop-opacity="0.3"/>
<stop offset="1" stop-color="#B6DDFF" stop-opacity="0"/>
</linearGradient>
<linearGradient id="paint15_linear_13601_1519" x1="1116.73" y1="-0.000128952" x2="214.713" y2="-5.17729e-05" gradientUnits="userSpaceOnUse">
<stop stop-color="#B6DDFF" stop-opacity="0"/>
<stop offset="0.424924" stop-opacity="0.36"/>
<stop offset="0.561017" stop-opacity="0.3"/>
<stop offset="1" stop-color="#B6DDFF" stop-opacity="0"/>
</linearGradient>
<linearGradient id="paint16_linear_13601_1519" x1="1116.73" y1="-0.000128952" x2="214.713" y2="-5.17729e-05" gradientUnits="userSpaceOnUse">
<stop stop-color="#B6DDFF" stop-opacity="0"/>
<stop offset="0.424924" stop-opacity="0.36"/>
<stop offset="0.561017" stop-opacity="0.3"/>
<stop offset="1" stop-color="#B6DDFF" stop-opacity="0"/>
</linearGradient>
<linearGradient id="paint17_linear_13601_1519" x1="1116.73" y1="-0.000128952" x2="214.713" y2="-5.17729e-05" gradientUnits="userSpaceOnUse">
<stop stop-color="#B6DDFF" stop-opacity="0"/>
<stop offset="0.424924" stop-opacity="0.36"/>
<stop offset="0.561017" stop-opacity="0.3"/>
<stop offset="1" stop-color="#B6DDFF" stop-opacity="0"/>
</linearGradient>
<linearGradient id="paint18_linear_13601_1519" x1="1116.73" y1="-0.000128952" x2="214.713" y2="-5.17729e-05" gradientUnits="userSpaceOnUse">
<stop stop-color="#B6DDFF" stop-opacity="0"/>
<stop offset="0.424924" stop-opacity="0.36"/>
<stop offset="0.561017" stop-opacity="0.3"/>
<stop offset="1" stop-color="#B6DDFF" stop-opacity="0"/>
</linearGradient>
<linearGradient id="paint19_linear_13601_1519" x1="1116.73" y1="-0.000128952" x2="214.713" y2="-5.17729e-05" gradientUnits="userSpaceOnUse">
<stop stop-color="#B6DDFF" stop-opacity="0"/>
<stop offset="0.424924" stop-opacity="0.36"/>
<stop offset="0.561017" stop-opacity="0.3"/>
<stop offset="1" stop-color="#B6DDFF" stop-opacity="0"/>
</linearGradient>
<linearGradient id="paint20_linear_13601_1519" x1="1116.73" y1="-0.000128952" x2="214.713" y2="-5.17729e-05" gradientUnits="userSpaceOnUse">
<stop stop-color="#B6DDFF" stop-opacity="0"/>
<stop offset="0.424924" stop-opacity="0.36"/>
<stop offset="0.561017" stop-opacity="0.3"/>
<stop offset="1" stop-color="#B6DDFF" stop-opacity="0"/>
</linearGradient>
<linearGradient id="paint21_linear_13601_1519" x1="1116.73" y1="-0.000128952" x2="214.713" y2="-5.17729e-05" gradientUnits="userSpaceOnUse">
<stop stop-color="#B6DDFF" stop-opacity="0"/>
<stop offset="0.424924" stop-opacity="0.36"/>
<stop offset="0.561017" stop-opacity="0.3"/>
<stop offset="1" stop-color="#B6DDFF" stop-opacity="0"/>
</linearGradient>
<linearGradient id="paint22_linear_13601_1519" x1="1116.73" y1="-0.000128952" x2="214.713" y2="-5.17729e-05" gradientUnits="userSpaceOnUse">
<stop stop-color="#B6DDFF" stop-opacity="0"/>
<stop offset="0.424924" stop-opacity="0.36"/>
<stop offset="0.561017" stop-opacity="0.3"/>
<stop offset="1" stop-color="#B6DDFF" stop-opacity="0"/>
</linearGradient>
<linearGradient id="paint23_linear_13601_1519" x1="1116.73" y1="-0.000128952" x2="214.713" y2="-5.17729e-05" gradientUnits="userSpaceOnUse">
<stop stop-color="#B6DDFF" stop-opacity="0"/>
<stop offset="0.424924" stop-opacity="0.36"/>
<stop offset="0.561017" stop-opacity="0.3"/>
<stop offset="1" stop-color="#B6DDFF" stop-opacity="0"/>
</linearGradient>
<linearGradient id="paint24_linear_13601_1519" x1="1116.73" y1="-0.000128952" x2="214.713" y2="-5.17729e-05" gradientUnits="userSpaceOnUse">
<stop stop-color="#B6DDFF" stop-opacity="0"/>
<stop offset="0.424924" stop-opacity="0.36"/>
<stop offset="0.561017" stop-opacity="0.3"/>
<stop offset="1" stop-color="#B6DDFF" stop-opacity="0"/>
</linearGradient>
<linearGradient id="paint25_linear_13601_1519" x1="1116.73" y1="-0.000128952" x2="214.713" y2="-5.17729e-05" gradientUnits="userSpaceOnUse">
<stop stop-color="#B6DDFF" stop-opacity="0"/>
<stop offset="0.424924" stop-opacity="0.36"/>
<stop offset="0.561017" stop-opacity="0.3"/>
<stop offset="1" stop-color="#B6DDFF" stop-opacity="0"/>
</linearGradient>
<linearGradient id="paint26_linear_13601_1519" x1="1116.73" y1="-0.000128952" x2="214.713" y2="-5.17729e-05" gradientUnits="userSpaceOnUse">
<stop stop-color="#B6DDFF" stop-opacity="0"/>
<stop offset="0.424924" stop-opacity="0.36"/>
<stop offset="0.561017" stop-opacity="0.3"/>
<stop offset="1" stop-color="#B6DDFF" stop-opacity="0"/>
</linearGradient>
<linearGradient id="paint27_linear_13601_1519" x1="1675.67" y1="3.83684e-05" x2="29.0541" y2="3.20906e-05" gradientUnits="userSpaceOnUse">
<stop stop-color="#B6DDFF" stop-opacity="0"/>
<stop offset="0.350112" stop-opacity="0.72"/>
<stop offset="0.768803" stop-opacity="0.7"/>
<stop offset="1" stop-color="#B6DDFF" stop-opacity="0"/>
</linearGradient>
<linearGradient id="paint28_linear_13601_1519" x1="1675.67" y1="3.83684e-05" x2="29.0541" y2="3.20906e-05" gradientUnits="userSpaceOnUse">
<stop stop-color="#B6DDFF" stop-opacity="0"/>
<stop offset="0.350112" stop-opacity="0.72"/>
<stop offset="0.768803" stop-opacity="0.7"/>
<stop offset="1" stop-color="#B6DDFF" stop-opacity="0"/>
</linearGradient>
<linearGradient id="paint29_linear_13601_1519" x1="1675.67" y1="3.83684e-05" x2="29.0541" y2="3.20906e-05" gradientUnits="userSpaceOnUse">
<stop stop-color="#B6DDFF" stop-opacity="0"/>
<stop offset="0.350112" stop-opacity="0.72"/>
<stop offset="0.768803" stop-opacity="0.7"/>
<stop offset="1" stop-color="#B6DDFF" stop-opacity="0"/>
</linearGradient>
<linearGradient id="paint30_linear_13601_1519" x1="1675.67" y1="3.83684e-05" x2="29.0541" y2="3.20906e-05" gradientUnits="userSpaceOnUse">
<stop stop-color="#B6DDFF" stop-opacity="0"/>
<stop offset="0.255" stop-opacity="0.72"/>
<stop offset="0.83" stop-opacity="0.59"/>
<stop offset="1" stop-color="#B6DDFF" stop-opacity="0"/>
</linearGradient>
<linearGradient id="paint31_linear_13601_1519" x1="147.269" y1="254.64" x2="1793.88" y2="254.64" gradientUnits="userSpaceOnUse">
<stop stop-color="#B6DDFF" stop-opacity="0"/>
<stop offset="0.255" stop-opacity="0.72"/>
<stop offset="0.83" stop-opacity="0.59"/>
<stop offset="1" stop-color="#B6DDFF" stop-opacity="0"/>
</linearGradient>
<linearGradient id="paint32_linear_13601_1519" x1="1675.67" y1="3.83684e-05" x2="29.0541" y2="3.20906e-05" gradientUnits="userSpaceOnUse">
<stop stop-color="#B6DDFF" stop-opacity="0"/>
<stop offset="0.255" stop-opacity="0.72"/>
<stop offset="0.83" stop-opacity="0.59"/>
<stop offset="1" stop-color="#B6DDFF" stop-opacity="0"/>
</linearGradient>
<linearGradient id="paint33_linear_13601_1519" x1="1675.67" y1="3.83684e-05" x2="29.0541" y2="3.20906e-05" gradientUnits="userSpaceOnUse">
<stop stop-color="#B6DDFF" stop-opacity="0"/>
<stop offset="0.255" stop-opacity="0.72"/>
<stop offset="0.83" stop-opacity="0.59"/>
<stop offset="1" stop-color="#B6DDFF" stop-opacity="0"/>
</linearGradient>
<linearGradient id="paint34_linear_13601_1519" x1="1675.67" y1="3.83684e-05" x2="29.0541" y2="3.20906e-05" gradientUnits="userSpaceOnUse">
<stop stop-color="#B6DDFF" stop-opacity="0"/>
<stop offset="0.255" stop-opacity="0.72"/>
<stop offset="0.83" stop-opacity="0.59"/>
<stop offset="1" stop-color="#B6DDFF" stop-opacity="0"/>
</linearGradient>
<clipPath id="clip0_13601_1519">
<rect width="1726" height="1024" fill="white" transform="translate(97)"/>
</clipPath>
</defs>
</svg>
